<?xml version="1.0" standalone="no"?>
<!DOCTYPE svg PUBLIC "-//W3C//DTD SVG 20010904//EN"
 "http://www.w3.org/TR/2001/REC-SVG-20010904/DTD/svg10.dtd">
<svg version="1.0" xmlns="http://www.w3.org/2000/svg"
 width="260.000000pt" height="260.000000pt" viewBox="0 0 260.000000 260.000000"
 preserveAspectRatio="xMidYMid meet">
<metadata>
Created by potrace 1.11, written by Peter Selinger 2001-2013
</metadata>
<g transform="translate(0.000000,260.000000) scale(0.100000,-0.100000)"
fill="#000000" stroke="none">
<path d="M1322 2557 c-9 -11 -12 -66 -10 -203 l3 -189 84 -12 c147 -21 282
-72 400 -152 24 -16 49 -27 55 -24 16 7 240 280 244 297 4 18 -98 91 -209 150
-148 78 -305 123 -489 141 -52 6 -69 4 -78 -8z"/>
<path d="M1990 2106 c-66 -79 -120 -148 -120 -153 0 -5 18 -27 41 -48 90 -88
194 -267 220 -383 7 -28 17 -53 23 -55 6 -2 94 11 196 29 102 18 187 33 189
34 10 1 -10 103 -35 175 -34 101 -93 219 -157 314 -61 92 -193 231 -218 231
-11 0 -64 -55 -139 -144z"/>
<path d="M1115 2124 c-253 -61 -451 -217 -566 -446 -109 -216 -118 -481 -26
-698 21 -48 39 -76 50 -78 16 -3 248 120 320 171 28 19 29 24 13 72 -4 11 5
-2 20 -30 14 -27 42 -70 61 -95 35 -45 35 -45 -11 5 l-45 50 -53 -28 c-149
-78 -283 -164 -286 -183 -4 -30 96 -151 181 -219 150 -120 334 -185 524 -185
242 0 434 79 603 249 89 89 132 153 115 170 -17 16 -323 191 -335 191 -6 0
-34 -24 -63 -53 -43 -44 -45 -46 -11 -7 23 26 50 62 60 81 16 29 19 31 22 13
2 -15 46 -46 162 -112 87 -51 168 -92 178 -92 24 0 63 83 93 197 28 102 30
287 6 387 -39 155 -111 289 -215 399 -142 149 -348 248 -521 251 l-76 1 0
-200 0 -200 30 -6 c19 -4 5 -7 -40 -7 -38 0 -61 3 -50 5 43 11 45 18 45 203 0
98 -3 185 -6 194 -8 20 -94 20 -179 0z m108 -411 c-7 -2 -19 -2 -25 0 -7 3 -2
5 12 5 14 0 19 -2 13 -5z m184 1 c-3 -3 -12 -4 -19 -1 -8 3 -5 6 6 6 11 1 17
-2 13 -5z m-313 -50 c-32 -19 -75 -50 -94 -67 -33 -30 -33 -30 -10 -3 26 30
136 106 153 106 6 0 -16 -16 -49 -36z m446 -10 c0 -2 -9 0 -20 6 -11 6 -20 13
-20 16 0 2 9 0 20 -6 11 -6 20 -13 20 -16z m65 -54 c27 -27 47 -50 44 -50 -3
0 -27 23 -54 50 -27 28 -47 50 -44 50 3 0 27 -22 54 -50z m-651 -65 c-9 -14
-18 -25 -21 -25 -5 0 5 18 20 38 17 22 18 13 1 -13z m756 -100 c0 -5 -5 -3
-10 5 -5 8 -10 20 -10 25 0 6 5 3 10 -5 5 -8 10 -19 10 -25z m7 -37 c-3 -8 -6
-5 -6 6 -1 11 2 17 5 13 3 -3 4 -12 1 -19z m-830 -30 c-3 -7 -5 -2 -5 12 0 14
2 19 5 13 2 -7 2 -19 0 -25z m840 -105 c-2 -21 -4 -4 -4 37 0 41 2 58 4 38 2
-21 2 -55 0 -75z m-850 25 c-3 -7 -5 -2 -5 12 0 14 2 19 5 13 2 -7 2 -19 0
-25z m10 -70 c-3 -8 -6 -5 -6 6 -1 11 2 17 5 13 3 -3 4 -12 1 -19z m823 -53
c-16 -47 -23 -40 -8 8 6 20 13 35 16 33 2 -3 -1 -21 -8 -41z m-620 -232 c0 -8
-38 17 -51 33 -9 11 -2 9 19 -6 17 -13 32 -25 32 -27z m455 17 c-7 -11 -79
-50 -92 -50 -4 0 15 13 42 29 60 34 58 34 50 21z m-318 -66 c-3 -3 -12 -4 -19
-1 -8 3 -5 6 6 6 11 1 17 -2 13 -5z m176 -1 c-7 -2 -19 -2 -25 0 -7 3 -2 5 12
5 14 0 19 -2 13 -5z m-75 -10 c-10 -2 -28 -2 -40 0 -13 2 -5 4 17 4 22 1 32
-1 23 -4z"/>
<path d="M2348 1476 c-98 -18 -180 -35 -184 -38 -3 -4 -7 -69 -8 -145 -3 -145
-15 -205 -62 -317 -45 -106 -55 -91 125 -194 88 -50 169 -92 179 -92 33 0 112
193 149 362 23 107 26 415 4 441 -7 10 -16 17 -20 16 -3 0 -86 -15 -183 -33z"/>
<path d="M378 758 c-87 -51 -158 -98 -158 -106 0 -24 98 -157 173 -234 241
-248 556 -380 907 -381 338 -1 635 116 877 346 88 84 203 233 203 264 0 17
-31 39 -157 112 -87 50 -165 91 -173 91 -9 0 -38 -30 -65 -66 -121 -161 -311
-282 -510 -325 -95 -20 -285 -15 -380 10 -99 26 -209 78 -289 135 -67 48 -182
165 -212 215 -11 19 -26 31 -39 31 -11 -1 -91 -42 -177 -92z"/>
</g>
</svg>
